<svg width="70" height="70" viewBox="0 0 79 80" fill="none" xmlns="http://www.w3.org/2000/svg">
<path d="M65.5653 31.1987C65.7324 26.8203 62.0566 23.1154 57.3784 23.6206C54.2038 23.9574 51.6976 26.4834 51.1963 29.6831C50.6951 32.3775 51.8647 35.072 53.7026 36.5876C54.0367 36.9244 54.3709 37.4296 54.2038 37.9348C53.7026 39.4505 52.8672 41.3029 50.528 42.4817C50.528 42.4817 46.8522 44.3341 43.1765 42.1449C43.1765 42.1449 43.0094 42.1449 43.0094 41.9765C42.174 41.3029 41.1715 40.2925 40.6702 39.1137C40.6702 38.7768 40.6702 37.9348 40.6702 37.9348C40.8373 37.2612 40.8373 36.5876 40.6702 35.914C40.3361 34.23 38.9994 33.0512 37.3286 32.7144C34.6553 32.2091 32.3162 34.23 32.1491 36.756C32.1491 37.598 32.3162 38.2716 32.6503 38.9453C32.6503 38.9453 33.987 41.9765 29.6429 44.1657C29.6429 44.1657 28.9746 44.5025 27.6379 44.3341C27.1367 44.3341 26.4683 44.3341 25.9671 44.5025C25.4659 44.6709 24.9646 44.5025 24.6304 43.9973C24.4634 43.8289 24.4634 43.6605 24.2963 43.6605C23.2938 42.1449 22.9596 40.7977 22.9596 39.7873C22.9596 39.6189 22.9596 39.4505 23.1267 39.1137C23.4609 38.2716 23.628 37.2612 23.4609 36.2508C23.1267 34.23 21.623 32.5459 19.618 32.2091C16.2764 31.5355 13.2689 34.23 13.6031 37.598C13.7702 39.6189 15.2739 41.4713 17.2789 41.9765C17.9472 42.1449 18.6155 42.1449 19.2838 42.1449C19.618 42.1449 20.1193 42.1449 20.2863 42.4817C21.4559 43.4921 22.1242 44.6709 22.6255 45.513C22.7926 46.0182 22.7926 46.5234 22.4584 46.8602C21.623 47.8706 21.2888 49.2178 21.2888 50.565C21.2888 53.7647 23.795 56.6275 26.9696 56.7959C30.4783 57.1328 33.4857 54.4383 33.6528 50.9018C33.6528 49.5546 33.3187 48.3758 32.8174 47.3654C32.6503 47.197 32.6503 46.8602 32.6503 46.6918C32.8174 45.1762 33.3187 42.6501 35.6578 41.6397C35.992 41.6397 36.3261 41.4713 36.6603 41.4713H36.8274C37.3286 41.4713 37.8299 41.3029 38.3311 41.1345C38.4982 41.1345 38.6653 41.1345 38.8323 41.1345C39.1665 41.1345 39.8348 41.4713 40.169 41.8081C41.5056 42.8185 43.0094 44.8393 42.341 47.7022V47.8706C42.341 48.039 42.341 48.2074 42.174 48.3758C42.174 48.5442 42.174 48.5442 42.174 48.7126V48.881C42.0069 52.4175 45.0143 55.4487 48.5231 55.2803C50.6951 55.1119 52.533 53.7647 53.5355 51.9123C54.0367 50.9018 54.2038 49.8914 54.2038 48.881C54.2038 48.7126 54.0367 48.2074 54.0367 48.2074C54.0367 48.2074 53.8696 42.6501 56.5429 39.4505C56.71 39.2821 56.8771 39.1137 57.0442 38.9453C57.2113 38.7768 57.3784 38.6084 57.3784 38.6084C57.3784 38.6084 57.3784 38.6084 57.5454 38.6084C58.2138 38.2716 58.8821 38.2716 58.8821 38.2716C62.3908 38.1032 65.3983 35.072 65.5653 31.1987Z" fill="#1887C9"/>
<path d="M39.5763 77.1734C59.6926 77.1314 75.9658 60.51 75.9237 40.0486C75.8815 19.5873 59.5399 3.03417 39.4237 3.07626C19.3074 3.11835 3.03416 19.7397 3.07631 40.2011C3.11845 60.6624 19.4601 77.2155 39.5763 77.1734Z" stroke="#1887C9" stroke-width="5" stroke-miterlimit="10"/>
</svg>
